# AST/ASF file generated using VICON BodyLanguage
# -----------------------------------------------
:version 1.10
:name VICON
:units
  mass 1.0
  length 0.45
  angle deg
:documentation
   .ast/.asf automatically generated from VICON data using
   VICON BodyBuilder and BodyLanguage model FoxedUp or BRILLIANT.MOD
:root
   order TX TY TZ RX RY RZ
   axis XYZ
   position 0 0 0  
   orientation 0 0 0 
:bonedata
  begin
     id 1 
     name lhipjoint
     direction 0.521452 -0.77106 0.36545 
     length 2.0933 
     axis 0 0 0  XYZ
  end
  begin
     id 2 
     name lfemur
     direction 0.34202 -0.939693 0  
     length 6.83441  
     axis 0 0 20  XYZ
    dof rx ry rz
    limits (-160.0 20.0)
           (-70.0 70.0)
           (-60.0 70.0)
  end
  begin
     id 3 
     name ltibia
     direction 0.34202 -0.939693 0   
     length 7.28749   
     axis 0 0 20   XYZ
    dof rx
    limits (-10.0 170.0)
  end
  begin
     id 4 
     name lfoot
     direction 0.100608 -0.276418 0.955757   
     length 1.52195   
     axis -90 7.62852e-016 20   XYZ
    dof rx rz
    limits (-45.0 90.0)
           (-70.0 20.0)
  end
  begin
     id 5 
     name ltoes
     direction 1.53558e-011 -4.21907e-011 1   
     length 0.770459   
     axis -90 7.62852e-016 20   XYZ
    dof rx
    limits (-90.0 20.0)
  end
  begin
     id 6 
     name rhipjoint
     direction -0.488071 -0.788702 0.373812   
     length 2.04648  
     axis 0 0 0  XYZ 
  end
  begin
     id 7 
     name rfemur
     direction -0.34202 -0.939693 0   
     length 6.92583   
     axis 0 0 -20   XYZ
    dof rx ry rz
    limits (-160.0 20.0)
           (-70.0 70.0)
           (-70.0 60.0)
  end
  begin
     id 8 
     name rtibia
     direction -0.34202 -0.939693 0   
     length 7.41043   
     axis 0 0 -20   XYZ
    dof rx
    limits (-10.0 170.0)
 end
 begin
     id 9 
     name rfoot
     direction -0.0784433 -0.215521 0.973343   
     length 1.67708  
     axis -90 -7.62852e-016 -20   XYZ
    dof rx rz
    limits (-45.0 90.0)
           (-20.0 70.0)
  end
  begin
     id 10 
     name rtoes
     direction -1.53551e-011 -4.21842e-011 1   
     length 0.849787   
     axis -90 -7.62852e-016 -20   XYZ
    dof rx
    limits (-90.0 20.0)
  end
  begin
     id 11 
     name lowerback
     direction -0.0122332 0.997575 -0.0685192   
     length 1.98724   
     axis 0 0 0   XYZ
    dof rx ry rz
    limits (-20.0 45.0)
           (-30.0 30.0)
           (-30.0 30.0)
  end
  begin
     id 12 
     name upperback
     direction 0.0182347 0.999724 -0.0148421   
     length 1.99029   
     axis 0 0 0   XYZ
    dof rx ry rz
    limits (-20.0 45.0)
           (-30.0 30.0)
           (-30.0 30.0)
  end
  begin
     id 13 
     name thorax
     direction 0.0242908 0.99956 0.0170184   
     length 1.99573   
     axis 0 0 0   XYZ
    dof rx ry rz
    limits (-20.0 45.0)
           (-30.0 30.0)
           (-30.0 30.0)
  end
  begin
     id 14 
     name lowerneck
     direction 0.0654488 0.985533 0.156338   
     length 1.4285   
     axis 0 0 0   XYZ
    dof rx ry rz
    limits (-20.0 45.0)
           (-30.0 30.0)
           (-30.0 30.0)
  end
  begin
     id 15 
     name upperneck
     direction -0.02953 0.998556 -0.0448842   
     length 1.44709   
     axis 0 0 0   XYZ
    dof rx ry rz
    limits (-20.0 45.0)
           (-30.0 30.0)
           (-30.0 30.0)
  end
  begin
     id 16
     name head
     direction -0.0155588 0.999386 -0.0314063  
     length 1.44689  
     axis 0 0 0   XYZ
    dof rx ry rz
    limits (-20.0 45.0)
           (-30.0 30.0)
           (-30.0 30.0)
  end
  begin
     id 17 
     name lclavicle
     direction 0.968229 0.236071 -0.0824755  
     length 3.60593  
     axis 0 0 0   XYZ
    dof ry rz
    limits (-20.0 10.0)
           (0.0 20.0)
  end
  begin
     id 18 
     name lhumerus
     direction 1 -4.48968e-011 7.8138e-029   
     length 5.06035   
     axis 180 -30 -90   XYZ
    dof rx ry rz
    limits (-60.0 90.0)
           (-90.0 90.0)
           (-90.0 90.0)
  end
  begin
     id 19
     name lradius
     direction 1 -4.48967e-011 9.02887e-028   
     length 3.1478   
     axis 180 -30 -90   XYZ
    dof rx
    limits (-10.0 170.0)
  end
  begin
     id 20
     name lwrist
     direction 1 -4.48961e-011 7.20928e-028   
     length 1.5739   
     axis -5.52449e-016 90 90   XYZ
    dof ry
    limits (-180.0 0.0)
 end
  begin
     id 21 
     name lhand
     direction 1 -4.48972e-011 1.44186e-027   
     length 0.606747   
     axis -9.20027e-016 90 90   XYZ
    dof rx rz
    limits (-90.0 90.0)
           (-45.0 45.0)
  end
  begin
     id 22 
     name lfingers
     direction 1 -4.48943e-011 2.88371e-027   
     length 0.489175   
     axis -1.84005e-015 90 90   XYZ
    dof rx
    limits (0.0 90.0)
  end
  begin
     id 23
     name lthumb
     direction 0.707107 -6.34917e-011 0.707107   
     length 0.70236   
     axis -90 45 2.85299e-015   XYZ
    dof rx rz
    limits (-45.0 45.0)
           (-45.0 45.0)
  end
  begin
     id 24 
     name rclavicle
     direction -0.978165 0.207816 0.0022268   
     length 3.35425  
     axis 0 0 0   XYZ 
    dof ry rz
    limits (-10.0 20.0)
           (-20.0 0.0)
  end
  begin
     id 25 
     name rhumerus
     direction -1 -4.48964e-011 -4.02159e-027  
     length 5.12273   
     axis 180 30 90   XYZ
    dof rx ry rz
    limits (-90.0 60.0)
           (-90.0 90.0)
           (-90.0 90.0)
  end
  begin
     id 26 
     name rradius
     direction -1 -4.48966e-011 1.62746e-027   
     length 3.422   
     axis 180 30 90   XYZ
    dof rx
    limits (-10.0 170.0)
  end
  begin
     id 27 
     name rwrist
     direction -1 -4.4896e-011 7.20928e-028   
     length 1.711   
     axis -5.52449e-016 -90 -90   XYZ
    dof ry
    limits (-180.0 0.0)
  end
  begin
     id 28
     name rhand
     direction -1 -4.48979e-011 1.44186e-027   
     length 0.704599   
     axis -9.20027e-016 -90 -90   XYZ
    dof rx rz
    limits (-90.0 90.0)
           (-45.0 45.0)
  end
  begin
     id 29
     name rfingers
     direction -1 -4.48962e-011 2.88371e-027   
     length 0.568066   
     axis -1.84005e-015 -90 -90   XYZ
    dof rx
    limits (0.0 90.0)
  end
  begin
     id 30
     name rthumb
     direction -0.707107 -6.34949e-011 0.707107   
     length 0.815633   
     axis -90 -45 -2.85299e-015   XYZ
    dof rx rz
    limits (-45.0 45.0)
           (-45.0 45.0)
  end
:hierarchy
  begin
    root lhipjoint rhipjoint lowerback
    lhipjoint lfemur
    lfemur ltibia
    ltibia lfoot
    lfoot ltoes
    rhipjoint rfemur
    rfemur rtibia
    rtibia rfoot
    rfoot rtoes
    lowerback upperback
    upperback thorax
    thorax lowerneck lclavicle rclavicle
    lowerneck upperneck
    upperneck head
    lclavicle lhumerus
    lhumerus lradius
    lradius lwrist
    lwrist lhand lthumb
    lhand lfingers
    rclavicle rhumerus
    rhumerus rradius
    rradius rwrist
    rwrist rhand rthumb
    rhand rfingers
  end

#!OML:ASF E:\id_vita\Project 1\Capture day 1\Session 1\Male1.ASF
:FULLY-SPECIFIED
:DEGREES
71
root -13.1051 16.2149 0.830424 -173.988 6.11865 -176.527
lowerback -2.81046 1.36787 -2.37827
upperback 1.42193 1.98096 -1.06012
thorax 2.99513 0.962826 0.348577
lowerneck -1.81065 8.42854 10.4297
upperneck 5.92841 11.2094 -2.73271
head 3.07447 5.79322 -2.276
rclavicle -1.80894e-014 -7.15625e-015
rhumerus -27.5382 -11.4244 -88.6527
rradius 20.7915
rwrist 7.9832
rhand -17.9961 31.3892
rfingers 7.12502
rthumb 8.27414 1.57118
lclavicle -1.80894e-014 -7.15625e-015
lhumerus -18.7382 8.77452 83.4451
lradius 12.0385
lwrist -14.7107
lhand -12.641 44.0893
lfingers 7.12502
lthumb 13.4393 73.6357
rfemur -14.2531 6.46213 15.9932
rtibia 23.6751
rfoot -10.4336 -8.42147
rtoes -8.73944
lfemur -11.3857 0.0723765 -19.8092
ltibia 28.6685
lfoot -18.2909 24.7851
ltoes 1.9633
72
root -13.0736 16.214 0.835658 -174.28 6.30978 -175.996
lowerback -2.51252 1.36862 -1.99059
upperback 1.60724 1.9536 -0.863974
thorax 3.02427 0.95282 0.326618
lowerneck -1.63832 8.56646 10.6109
upperneck 6.1736 11.4328 -2.86572
head 3.16777 5.91604 -2.34102
rclavicle -2.29596e-014 -4.77083e-015
rhumerus -27.4859 -11.0562 -88.807
rradius 20.8702
rwrist 7.73991
rhand -18.0403 31.3238
rfingers 7.12502
rthumb 8.23148 1.50412
lclavicle -2.29596e-014 -4.77083e-015
lhumerus -18.7104 9.024 83.3501
lradius 12.0736
lwrist -14.858
lhand -12.7274 44.2461
lfingers 7.12502
lthumb 13.3559 73.798
rfemur -13.8169 7.34403 16.7216
rtibia 23.4729
rfoot -10.1203 -8.92402
rtoes -7.01103
lfemur -11.1124 0.139367 -19.1109
ltibia 28.8733
lfoot -18.3659 24.9045
ltoes 1.82916
73
root -13.087 16.2129 0.856496 -173.773 6.64888 -177.503
lowerback -2.97868 1.22752 -3.17113
upperback 1.45482 1.85322 -1.28801
thorax 3.11134 0.888818 0.555625
lowerneck -1.29757 8.74373 10.7704
upperneck 6.3377 11.7354 -3.11589
head 3.21646 6.07367 -2.44625
rclavicle -1.21259e-014 4.77083e-015
rhumerus -27.464 -10.6897 -88.8847
rradius 20.9582
rwrist 7.75406
rhand -18.2895 31.2997
rfingers 7.12502
rthumb 7.99088 1.47073
lclavicle -1.21259e-014 4.77083e-015
lhumerus -18.8314 8.19718 83.5695
lradius 12.3676
lwrist -13.6404
lhand -12.8261 44.9019
lfingers 7.12502
lthumb 13.2608 74.46
rfemur -14.6849 6.43121 14.9402
rtibia 23.3897
rfoot -10.106 -7.91395
rtoes -7.34469
lfemur -11.8816 -0.328195 -20.8859
ltibia 28.9648
lfoot -18.2207 25.5947
ltoes 2.05722
74
root -13.0316 16.2146 0.862158 -174.215 6.82712 -175.71
lowerback -2.41684 1.30994 -1.82711
upperback 1.72681 1.86384 -0.721206
thorax 3.09552 0.908392 0.376653
lowerneck -1.08977 8.80017 11.1331
upperneck 6.60077 11.8622 -3.35025
head 3.32718 6.15321 -2.58421
rclavicle -2.18663e-015 2.14687e-014
rhumerus -27.3879 -10.5719 -89.0358
rradius 21.0156
rwrist 7.6433
rhand -18.2334 31.2801
rfingers 7.12502
rthumb 8.04504 1.45319
lclavicle -2.18663e-015 2.14687e-014
lhumerus -18.845 7.33973 83.642
lradius 12.5554
lwrist -12.7029
lhand -12.8501 45.2487
lfingers 7.12502
lthumb 13.2377 74.8083
rfemur -14.1245 7.96057 17.1798
rtibia 23.6375
rfoot -10.0641 -9.02842
rtoes -7.41448
lfemur -11.1313 -0.662495 -18.7186
ltibia 28.893
lfoot -18.2212 26.0607
ltoes 2.63245
75
root -13.0244 16.2149 0.874693 -174.135 7.01793 -175.922
lowerback -2.40658 1.2903 -1.96821
upperback 1.74101 1.84516 -0.748016
thorax 3.10143 0.896807 0.427031
lowerneck -0.75253 8.82497 11.1892
upperneck 6.75833 11.961 -3.44337
head 3.33891 6.21398 -2.63194
rclavicle 5.56597e-015 3.18055e-015
rhumerus -27.397 -10.5623 -88.9521
rradius 21.0748
rwrist 7.68379
rhand -18.2214 30.8724
rfingers 7.12502
rthumb 8.0567 1.046
lclavicle 5.56597e-015 3.18055e-015
lhumerus -18.8698 7.34176 83.7211
lradius 12.5819
lwrist -12.6945
lhand -12.9286 45.2155
lfingers 7.12502
lthumb 13.162 74.78
rfemur -14.4559 7.4771 16.9881
rtibia 23.8434
rfoot -10.3035 -8.53424
rtoes -1.90272
lfemur -11.1993 -1.26574 -18.9716
ltibia 28.8321
lfoot -17.9457 26.7391
ltoes 3.01834
76
root -13.0581 16.213 0.906348 -173.456 7.32242 -177.98
lowerback -2.93311 1.14662 -3.42166
upperback 1.49716 1.76399 -1.38388
thorax 3.12858 0.842071 0.591675
lowerneck -0.206525 8.93292 11.2513
upperneck 6.61913 12.1886 -3.66283
head 3.23032 6.32762 -2.73241
rclavicle -1.71949e-014 4.92986e-014
rhumerus -27.3648 -10.7608 -88.726
rradius 21.0707
rwrist 8.18576
rhand -18.0888 31.1679
rfingers 7.12502
rthumb 8.18467 1.34644
lclavicle -1.71949e-014 4.92986e-014
lhumerus -18.8283 7.60145 83.7581
lradius 12.5543
lwrist -12.8031
lhand -12.9676 45.1108
lfingers 7.12502
lthumb 13.1244 74.6778
rfemur -15.8481 4.9786 14.6849
rtibia 24.1063
rfoot -10.6286 -6.70501
rtoes -8.11472
lfemur -12.2195 -1.20125 -21.3596
ltibia 28.743
lfoot -17.5356 26.918
ltoes 2.69536
77
root -13.0073 16.2124 0.910703 -173.778 7.57031 -176.809
lowerback -2.54432 1.2222 -2.74534
upperback 1.71186 1.79676 -0.874221
thorax 3.13196 0.859137 0.732448
lowerneck 0.271029 9.02982 11.528
upperneck 6.49696 12.3991 -4.06925
head 3.17419 6.43317 -2.93206
rclavicle -2.98177e-016 -2.46493e-014
rhumerus -27.3294 -10.7507 -88.4623
rradius 21.0387
rwrist 8.57853
rhand -17.4878 32.2289
rfingers 7.12502
rthumb 8.76465 2.43084
lclavicle -2.98177e-016 -2.46493e-014
lhumerus -18.7613 8.16 83.7224
lradius 12.4161
lwrist -13.2867
lhand -12.7652 44.8324
lfingers 7.12502
lthumb 13.3195 74.3867
rfemur -15.4837 5.60171 16.2482
rtibia 24.2512
rfoot -10.3955 -7.28714
rtoes -10.4136
lfemur -11.7212 -1.37459 -19.9306
ltibia 28.7809
lfoot -17.3334 27.4126
ltoes 2.25627
78
root -13.0189 16.2098 0.931515 -173.406 7.9139 -178.176
lowerback -2.85275 1.24659 -3.6733
upperback 1.58766 1.90929 -1.36385
thorax 3.16375 0.90863 0.75955
lowerneck 0.683418 9.0517 11.9406
upperneck 6.55292 12.5201 -4.57648
head 2.87735 6.48148 -2.85707
rclavicle -1.63003e-014 2.38542e-014
rhumerus -27.3542 -11.3429 -88.2481
rradius 21.0979
rwrist 9.15216
rhand -17.2111 32.562
rfingers 7.12502
rthumb 9.03166 2.7754
lclavicle -1.63003e-014 2.38542e-014
lhumerus -18.6816 8.25858 83.7097
lradius 12.3005
lwrist -13.6619
lhand -12.7168 44.6532
lfingers 7.12502
lthumb 13.3662 74.2045
rfemur -16.4739 4.09182 14.7203
rtibia 24.7124
rfoot -11.0813 -5.78378
rtoes -9.16028
lfemur -12.2513 -1.18603 -21.5039
ltibia 28.5441
lfoot -16.7354 27.5482
ltoes 1.53194
79
root -12.9699 16.214 0.936001 -173.737 8.01816 -176.459
lowerback -2.38453 1.36475 -2.26011
upperback 1.83918 1.96553 -0.846577
thorax 3.18219 0.952476 0.495798
lowerneck 0.673982 9.14417 12.1749
upperneck 6.98395 12.6725 -4.4178
head 3.02638 6.58452 -2.82261
rclavicle -1.86858e-014 1.51076e-014
rhumerus -27.4166 -12.1931 -88.0974
rradius 21.2513
rwrist 9.80586
rhand -17.4341 32.1718
rfingers 7.12502
rthumb 8.81647 2.37592
lclavicle -1.86858e-014 1.51076e-014
lhumerus -18.6195 7.60173 83.7952
lradius 12.3098
lwrist -13.1943
lhand -12.8938 44.6267
lfingers 7.12502
lthumb 13.1956 74.1891
rfemur -15.7389 4.92252 16.8411
rtibia 24.4607
rfoot -11.0033 -6.35754
rtoes -8.47425
lfemur -11.8303 -0.311757 -19.4013
ltibia 28.8288
lfoot -17.0098 26.9844
ltoes 1.25986
80
root -12.976 16.2177 0.955012 -173.362 8.21641 -178.157
lowerback -2.73692 1.17362 -3.70665
upperback 1.68422 1.80892 -1.29958
thorax 3.19914 0.855713 0.837375
lowerneck 1.07294 9.28681 12.5704
upperneck 7.16562 12.9674 -4.82127
head 3.09289 6.74545 -2.99665
rclavicle 2.26615e-014 -1.90833e-014
rhumerus -27.4225 -11.6879 -88.1784
rradius 21.3415
rwrist 9.4522
rhand -17.5327 31.7943
rfingers 7.12502
rthumb 8.72134 1.9945
lclavicle 2.26615e-014 -1.90833e-014
lhumerus -18.6839 7.50947 83.8236
lradius 12.3236
lwrist -12.9223
lhand -12.9883 44.5566
lfingers 7.12502
lthumb 13.1045 74.1249
rfemur -16.6682 3.53905 14.9739
rtibia 24.7164
rfoot -11.5069 -5.2375
rtoes -9.28627
lfemur -12.4854 -0.0255154 -21.2918
ltibia 28.6934
lfoot -16.7845 26.8045
ltoes 0.718306
81
root -12.9273 16.2216 0.961774 -173.745 8.30296 -176.485
lowerback -2.05509 1.15209 -2.49336
upperback 1.85265 1.67226 -0.64006
thorax 3.0048 0.800161 0.816184
lowerneck 1.61763 9.36475 13.184
upperneck 7.22006 13.2215 -5.70142
head 3.14159 6.878 -3.35705
rclavicle -3.97569e-016 -1.27222e-014
rhumerus -27.4331 -10.7595 -88.312
rradius 21.3986
rwrist 8.6746
rhand -17.9045 31.0197
rfingers 7.12502
rthumb 8.36251 1.20522
lclavicle -3.97569e-016 -1.27222e-014
lhumerus -18.8263 8.04428 83.7624
lradius 12.2808
lwrist -13.2438
lhand -12.9964 44.556
lfingers 7.12502
lthumb 13.0967 74.1248
rfemur -15.8359 4.19066 17.0344
rtibia 24.3605
rfoot -11.2432 -5.82537
rtoes -8.99636
lfemur -11.92 -0.682501 -19.2791
ltibia 29.0143
lfoot -17.1123 27.5158
ltoes 1.85401
